<svg width="207" height="67" viewBox="0 0 207 67" fill="none" xmlns="http://www.w3.org/2000/svg">
<path d="M0 22.0395L25.7694 0H51.75H103.5H207V30.8553V48.9276L181.125 67H155.25H103.5H0V22.0395Z" fill="url(#paint0_linear_735_774)"/>
<path d="M30.9364 39.1577V28.7577H34.8724C35.9817 28.7577 36.8244 29.0297 37.4004 29.5737C37.9871 30.107 38.2804 30.8804 38.2804 31.8937C38.2804 32.907 37.9871 33.6857 37.4004 34.2297C36.8244 34.763 35.9817 35.0297 34.8724 35.0297H32.8724V39.1577H30.9364ZM32.8724 33.2697H34.7124C35.2884 33.2697 35.6991 33.163 35.9444 32.9497C36.2004 32.7364 36.3284 32.3844 36.3284 31.8937C36.3284 31.403 36.2004 31.051 35.9444 30.8377C35.6991 30.6244 35.2884 30.5177 34.7124 30.5177H32.8724V33.2697ZM45.2096 39.3497C43.247 39.3497 42.2656 38.3737 42.2656 36.4217V29.5097H39.3216V27.7977H44.1536V36.1337C44.1536 36.6777 44.255 37.0617 44.4576 37.2857C44.671 37.5097 45.0336 37.6217 45.5456 37.6217C46.175 37.6217 46.783 37.4404 47.3696 37.0777L47.8496 38.6777C47.0816 39.1257 46.2016 39.3497 45.2096 39.3497ZM52.0589 39.3497C51.1309 39.3497 50.4056 39.1364 49.8829 38.7097C49.3709 38.2724 49.1149 37.6644 49.1149 36.8857C49.1149 36.139 49.3602 35.5684 49.8509 35.1737C50.3522 34.779 51.0722 34.5817 52.0109 34.5817H54.3949V34.4377C54.3949 33.9044 54.2669 33.5257 54.0109 33.3017C53.7549 33.067 53.3282 32.9497 52.7309 32.9497C51.7922 32.9497 50.9176 33.1844 50.1069 33.6537L49.5469 32.1337C50.5389 31.611 51.6696 31.3497 52.9389 31.3497C54.0909 31.3497 54.9336 31.5897 55.4669 32.0697C56.0109 32.5497 56.2829 33.3017 56.2829 34.3257V39.1577H54.8909L54.7309 38.5017C54.3149 38.8004 53.8882 39.019 53.4509 39.1577C53.0242 39.2857 52.5602 39.3497 52.0589 39.3497ZM52.4589 37.7497C53.1842 37.7497 53.8296 37.5897 54.3949 37.2697V36.0057H52.1869C51.7816 36.0057 51.4882 36.075 51.3069 36.2137C51.1256 36.3417 51.0349 36.5444 51.0349 36.8217C51.0349 37.131 51.1469 37.3657 51.3709 37.5257C51.6056 37.675 51.9682 37.7497 52.4589 37.7497ZM62.7961 39.3497C61.9641 39.3497 61.2388 39.1897 60.6201 38.8697C60.0121 38.539 59.5375 38.075 59.1961 37.4777C58.8655 36.8804 58.7001 36.171 58.7001 35.3497C58.7001 34.5284 58.8655 33.819 59.1961 33.2217C59.5375 32.6244 60.0121 32.1657 60.6201 31.8457C61.2388 31.515 61.9641 31.3497 62.7961 31.3497C63.7881 31.3497 64.6948 31.611 65.5161 32.1337L64.8601 33.6857C64.4655 33.4617 64.1135 33.307 63.8041 33.2217C63.5055 33.1257 63.1855 33.0777 62.8441 33.0777C62.1188 33.0777 61.5641 33.2697 61.1801 33.6537C60.8068 34.0377 60.6201 34.603 60.6201 35.3497C60.6201 36.0964 60.8068 36.6617 61.1801 37.0457C61.5641 37.4297 62.1188 37.6217 62.8441 37.6217C63.2175 37.6217 63.5695 37.5684 63.9001 37.4617C64.2308 37.355 64.6148 37.1684 65.0521 36.9017L65.7561 38.4057C64.8708 39.035 63.8841 39.3497 62.7961 39.3497ZM71.8694 39.3497C70.5467 39.3497 69.5067 38.9924 68.7494 38.2777C67.9921 37.563 67.6134 36.587 67.6134 35.3497C67.6134 34.5497 67.7787 33.851 68.1094 33.2537C68.4401 32.6564 68.8987 32.1924 69.4854 31.8617C70.0721 31.5204 70.7547 31.3497 71.5334 31.3497C72.2907 31.3497 72.9467 31.5097 73.5014 31.8297C74.0667 32.139 74.5041 32.5764 74.8134 33.1417C75.1227 33.707 75.2774 34.3684 75.2774 35.1257C75.2774 35.2644 75.2721 35.4084 75.2614 35.5577C75.2507 35.6964 75.2294 35.8457 75.1974 36.0057H69.5334C69.6401 36.5924 69.8907 37.0297 70.2854 37.3177C70.6801 37.6057 71.2134 37.7497 71.8854 37.7497C72.6854 37.7497 73.4694 37.5044 74.2374 37.0137L74.9414 38.4057C74.4507 38.7364 73.9601 38.9764 73.4694 39.1257C72.9787 39.275 72.4454 39.3497 71.8694 39.3497ZM69.5494 34.5817H73.4214C73.3361 34.0484 73.1281 33.643 72.7974 33.3657C72.4774 33.0884 72.0507 32.9497 71.5174 32.9497C70.9947 32.9497 70.5627 33.0884 70.2214 33.3657C69.8907 33.643 69.6667 34.0484 69.5494 34.5817ZM89.0399 39.1577V34.6937L85.5199 28.7577H87.8079L90.0799 32.8057L92.3679 28.7577H94.4799L90.9599 34.6937V39.1577H89.0399ZM99.2811 39.3497C98.5131 39.3497 97.8358 39.1844 97.2491 38.8537C96.6625 38.5124 96.2038 38.043 95.8731 37.4457C95.5425 36.8377 95.3771 36.139 95.3771 35.3497C95.3771 34.5497 95.5425 33.851 95.8731 33.2537C96.2038 32.6564 96.6625 32.1924 97.2491 31.8617C97.8358 31.5204 98.5131 31.3497 99.2811 31.3497C100.049 31.3497 100.726 31.5204 101.313 31.8617C101.9 32.1924 102.358 32.6564 102.689 33.2537C103.02 33.851 103.185 34.5497 103.185 35.3497C103.185 36.139 103.02 36.8377 102.689 37.4457C102.358 38.043 101.9 38.5124 101.313 38.8537C100.726 39.1844 100.049 39.3497 99.2811 39.3497ZM99.2811 37.6217C99.8998 37.6217 100.385 37.4244 100.737 37.0297C101.089 36.6244 101.265 36.0644 101.265 35.3497C101.265 34.635 101.089 34.0804 100.737 33.6857C100.385 33.2804 99.8998 33.0777 99.2811 33.0777C98.6625 33.0777 98.1771 33.2804 97.8251 33.6857C97.4731 34.0804 97.2971 34.635 97.2971 35.3497C97.2971 36.0644 97.4731 36.6244 97.8251 37.0297C98.1771 37.4244 98.6625 37.6217 99.2811 37.6217ZM107.874 39.3497C106.978 39.3497 106.29 39.099 105.81 38.5977C105.33 38.0857 105.09 37.3604 105.09 36.4217V31.5417H106.978V36.1337C106.978 36.6777 107.08 37.0617 107.282 37.2857C107.496 37.5097 107.858 37.6217 108.37 37.6217C108.669 37.6217 108.952 37.5844 109.218 37.5097C109.485 37.435 109.752 37.3284 110.018 37.1897V31.5417H111.906V39.1577H110.514L110.354 38.5017C109.96 38.8004 109.56 39.019 109.154 39.1577C108.749 39.2857 108.322 39.3497 107.874 39.3497ZM114.948 39.1577V31.5417H116.42L116.612 32.5977C117.006 32.1604 117.433 31.8457 117.892 31.6537C118.35 31.451 118.868 31.3497 119.444 31.3497C120.222 31.3497 120.894 31.5524 121.46 31.9577L120.756 33.5897C120.521 33.419 120.281 33.2964 120.036 33.2217C119.801 33.1364 119.545 33.0937 119.268 33.0937C118.361 33.0937 117.55 33.531 116.836 34.4057V39.1577H114.948ZM136.406 39.3497C135.083 39.3497 134.081 38.8964 133.398 37.9897C132.715 37.0724 132.374 35.7284 132.374 33.9577C132.374 32.1764 132.715 30.8324 133.398 29.9257C134.081 29.019 135.083 28.5657 136.406 28.5657C137.739 28.5657 138.742 29.019 139.414 29.9257C140.097 30.8324 140.438 32.1764 140.438 33.9577C140.438 35.7284 140.097 37.0724 139.414 37.9897C138.742 38.8964 137.739 39.3497 136.406 39.3497ZM136.406 37.5577C137.793 37.5577 138.486 36.3577 138.486 33.9577C138.486 31.5577 137.793 30.3577 136.406 30.3577C135.019 30.3577 134.326 31.5577 134.326 33.9577C134.326 36.3577 135.019 37.5577 136.406 37.5577ZM142.791 39.1577V31.5417H144.263L144.455 32.5977C144.85 32.1604 145.277 31.8457 145.735 31.6537C146.194 31.451 146.711 31.3497 147.287 31.3497C148.066 31.3497 148.738 31.5524 149.303 31.9577L148.599 33.5897C148.365 33.419 148.125 33.2964 147.879 33.2217C147.645 33.1364 147.389 33.0937 147.111 33.0937C146.205 33.0937 145.394 33.531 144.679 34.4057V39.1577H142.791ZM154.425 39.3497C153.422 39.3497 152.622 38.9924 152.025 38.2777C151.438 37.5524 151.145 36.5764 151.145 35.3497C151.145 34.123 151.438 33.1524 152.025 32.4377C152.622 31.7124 153.422 31.3497 154.425 31.3497C154.777 31.3497 155.123 31.403 155.465 31.5097C155.817 31.6057 156.163 31.7604 156.505 31.9737V27.7977H158.393V39.1577H157.001L156.841 38.5177C156.051 39.0724 155.246 39.3497 154.425 39.3497ZM154.905 37.6217C155.171 37.6217 155.438 37.5844 155.705 37.5097C155.971 37.435 156.238 37.3284 156.505 37.1897V33.5097C156.238 33.3604 155.971 33.2537 155.705 33.1897C155.438 33.115 155.171 33.0777 154.905 33.0777C154.286 33.0777 153.822 33.2697 153.513 33.6537C153.203 34.027 153.049 34.5924 153.049 35.3497C153.049 36.107 153.203 36.6777 153.513 37.0617C153.822 37.435 154.286 37.6217 154.905 37.6217ZM164.682 39.3497C163.359 39.3497 162.319 38.9924 161.562 38.2777C160.805 37.563 160.426 36.587 160.426 35.3497C160.426 34.5497 160.591 33.851 160.922 33.2537C161.253 32.6564 161.711 32.1924 162.298 31.8617C162.885 31.5204 163.567 31.3497 164.346 31.3497C165.103 31.3497 165.759 31.5097 166.314 31.8297C166.879 32.139 167.317 32.5764 167.626 33.1417C167.935 33.707 168.09 34.3684 168.09 35.1257C168.09 35.2644 168.085 35.4084 168.074 35.5577C168.063 35.6964 168.042 35.8457 168.01 36.0057H162.346C162.453 36.5924 162.703 37.0297 163.098 37.3177C163.493 37.6057 164.026 37.7497 164.698 37.7497C165.498 37.7497 166.282 37.5044 167.05 37.0137L167.754 38.4057C167.263 38.7364 166.773 38.9764 166.282 39.1257C165.791 39.275 165.258 39.3497 164.682 39.3497ZM162.362 34.5817H166.234C166.149 34.0484 165.941 33.643 165.61 33.3657C165.29 33.0884 164.863 32.9497 164.33 32.9497C163.807 32.9497 163.375 33.0884 163.034 33.3657C162.703 33.643 162.479 34.0484 162.362 34.5817ZM170.635 39.1577V31.5417H172.107L172.299 32.5977C172.694 32.1604 173.12 31.8457 173.579 31.6537C174.038 31.451 174.555 31.3497 175.131 31.3497C175.91 31.3497 176.582 31.5524 177.147 31.9577L176.443 33.5897C176.208 33.419 175.968 33.2964 175.723 33.2217C175.488 33.1364 175.232 33.0937 174.955 33.0937C174.048 33.0937 173.238 33.531 172.523 34.4057V39.1577H170.635Z" fill="white"/>
<defs>
<linearGradient id="paint0_linear_735_774" x1="0" y1="33.5" x2="207" y2="33.5" gradientUnits="userSpaceOnUse">
<stop stop-color="#732A74"/>
<stop offset="1" stop-color="#BC223C"/>
</linearGradient>
</defs>
</svg>
