<svg width="516" height="123" viewBox="0 0 516 123" fill="none" xmlns="http://www.w3.org/2000/svg">
<path d="M419.932 74L372.603 121.766H290" stroke="url(#paint0_linear_735_794)" stroke-width="2" stroke-miterlimit="10"/>
<path d="M1 98V37.5012L64.3312 1H401" stroke="url(#paint1_linear_735_794)" stroke-width="2" stroke-miterlimit="10"/>
<path d="M64.7 50V33.75H67.35V40.5H73.15V33.75H75.8V50H73.15V42.95H67.35V50H64.7ZM84.752 50.3C83.552 50.3 82.4936 50.0417 81.577 49.525C80.677 48.9917 79.9686 48.2583 79.452 47.325C78.952 46.3917 78.702 45.3083 78.702 44.075C78.702 42.825 78.952 41.7417 79.452 40.825C79.9686 39.8917 80.677 39.1667 81.577 38.65C82.4936 38.1167 83.552 37.85 84.752 37.85C85.952 37.85 87.002 38.1167 87.902 38.65C88.8186 39.1667 89.527 39.8917 90.027 40.825C90.5436 41.7417 90.802 42.825 90.802 44.075C90.802 45.3083 90.5436 46.3917 90.027 47.325C89.527 48.2583 88.8186 48.9917 87.902 49.525C87.002 50.0417 85.952 50.3 84.752 50.3ZM84.752 47.9C85.8186 47.9 86.652 47.5667 87.252 46.9C87.852 46.2167 88.152 45.275 88.152 44.075C88.152 42.875 87.852 41.9417 87.252 41.275C86.652 40.5917 85.8186 40.25 84.752 40.25C83.702 40.25 82.8686 40.5917 82.252 41.275C81.652 41.9417 81.352 42.875 81.352 44.075C81.352 45.275 81.652 46.2167 82.252 46.9C82.8686 47.5667 83.702 47.9 84.752 47.9ZM94.9039 50L92.1539 38.15H94.5289L96.4539 46.8L98.3539 39.475H100.279L102.179 46.8L104.129 38.15H106.354L103.604 50H101.104L99.2539 42.8L97.4039 50H94.9039ZM130.358 50.3C127.324 50.3 125.808 48.7917 125.808 45.775V40.5H122.233V38.15H125.808V34.65L128.408 33.45V38.15H133.058V40.5H128.408V45.375C128.408 46.2917 128.583 46.9417 128.933 47.325C129.299 47.7083 129.908 47.9 130.758 47.9C131.758 47.9 132.716 47.625 133.633 47.075L134.308 49.3C133.141 49.9667 131.824 50.3 130.358 50.3ZM142.76 50.3C141.56 50.3 140.501 50.0417 139.585 49.525C138.685 48.9917 137.976 48.2583 137.46 47.325C136.96 46.3917 136.71 45.3083 136.71 44.075C136.71 42.825 136.96 41.7417 137.46 40.825C137.976 39.8917 138.685 39.1667 139.585 38.65C140.501 38.1167 141.56 37.85 142.76 37.85C143.96 37.85 145.01 38.1167 145.91 38.65C146.826 39.1667 147.535 39.8917 148.035 40.825C148.551 41.7417 148.81 42.825 148.81 44.075C148.81 45.3083 148.551 46.3917 148.035 47.325C147.535 48.2583 146.826 48.9917 145.91 49.525C145.01 50.0417 143.96 50.3 142.76 50.3ZM142.76 47.9C143.826 47.9 144.66 47.5667 145.26 46.9C145.86 46.2167 146.16 45.275 146.16 44.075C146.16 42.875 145.86 41.9417 145.26 41.275C144.66 40.5917 143.826 40.25 142.76 40.25C141.71 40.25 140.876 40.5917 140.26 41.275C139.66 41.9417 139.36 42.875 139.36 44.075C139.36 45.275 139.66 46.2167 140.26 46.9C140.876 47.5667 141.71 47.9 142.76 47.9ZM171.764 50.3C170.564 50.3 169.505 50.0417 168.589 49.525C167.689 48.9917 166.98 48.2583 166.464 47.325C165.964 46.3917 165.714 45.3083 165.714 44.075C165.714 42.825 165.964 41.7417 166.464 40.825C166.98 39.8917 167.689 39.1667 168.589 38.65C169.505 38.1167 170.564 37.85 171.764 37.85C172.964 37.85 174.014 38.1167 174.914 38.65C175.83 39.1667 176.539 39.8917 177.039 40.825C177.555 41.7417 177.814 42.825 177.814 44.075C177.814 45.3083 177.555 46.3917 177.039 47.325C176.539 48.2583 175.83 48.9917 174.914 49.525C174.014 50.0417 172.964 50.3 171.764 50.3ZM171.764 47.9C172.83 47.9 173.664 47.5667 174.264 46.9C174.864 46.2167 175.164 45.275 175.164 44.075C175.164 42.875 174.864 41.9417 174.264 41.275C173.664 40.5917 172.83 40.25 171.764 40.25C170.714 40.25 169.88 40.5917 169.264 41.275C168.664 41.9417 168.364 42.875 168.364 44.075C168.364 45.275 168.664 46.2167 169.264 46.9C169.88 47.5667 170.714 47.9 171.764 47.9ZM181.866 50V38.15H183.891L184.191 39.925C184.824 39.2083 185.516 38.6833 186.266 38.35C187.016 38.0167 187.857 37.85 188.791 37.85C189.974 37.85 190.974 38.1417 191.791 38.725L190.816 41C190.466 40.7333 190.107 40.55 189.741 40.45C189.374 40.3333 188.974 40.275 188.541 40.275C186.991 40.275 185.632 41.0167 184.466 42.5V50H181.866ZM199.968 50.3C198.401 50.3 197.151 49.7417 196.218 48.625C195.301 47.4917 194.843 45.975 194.843 44.075C194.843 42.175 195.301 40.6667 196.218 39.55C197.151 38.4167 198.401 37.85 199.968 37.85C200.568 37.85 201.159 37.9417 201.743 38.125C202.343 38.3083 202.918 38.5833 203.468 38.95V32.25H206.068V50H204.168L203.918 48.925C202.651 49.8417 201.334 50.3 199.968 50.3ZM200.593 47.9C201.076 47.9 201.559 47.825 202.043 47.675C202.543 47.525 203.018 47.3083 203.468 47.025V41.125C203.018 40.825 202.543 40.6083 202.043 40.475C201.559 40.325 201.076 40.25 200.593 40.25C199.576 40.25 198.801 40.575 198.268 41.225C197.734 41.875 197.468 42.825 197.468 44.075C197.468 45.325 197.734 46.275 198.268 46.925C198.801 47.575 199.576 47.9 200.593 47.9ZM215.945 50.3C213.895 50.3 212.278 49.75 211.095 48.65C209.928 47.5333 209.345 46.0083 209.345 44.075C209.345 42.825 209.595 41.7333 210.095 40.8C210.611 39.8667 211.328 39.1417 212.245 38.625C213.161 38.1083 214.22 37.85 215.42 37.85C216.603 37.85 217.628 38.0917 218.495 38.575C219.361 39.0583 220.028 39.7417 220.495 40.625C220.978 41.4917 221.22 42.5167 221.22 43.7C221.22 43.9 221.211 44.1083 221.195 44.325C221.195 44.525 221.17 44.7417 221.12 44.975H211.995C212.145 45.9917 212.553 46.7583 213.22 47.275C213.903 47.7917 214.82 48.05 215.97 48.05C217.27 48.05 218.528 47.6583 219.745 46.875L220.745 48.825C219.978 49.3417 219.211 49.7167 218.445 49.95C217.678 50.1833 216.845 50.3 215.945 50.3ZM212.02 42.95H218.645C218.528 42.0333 218.186 41.3333 217.62 40.85C217.07 40.35 216.328 40.1 215.395 40.1C214.495 40.1 213.753 40.35 213.17 40.85C212.586 41.3333 212.203 42.0333 212.02 42.95ZM225.371 50V38.15H227.396L227.696 39.925C228.33 39.2083 229.021 38.6833 229.771 38.35C230.521 38.0167 231.363 37.85 232.296 37.85C233.48 37.85 234.48 38.1417 235.296 38.725L234.321 41C233.971 40.7333 233.613 40.55 233.246 40.45C232.88 40.3333 232.48 40.275 232.046 40.275C230.496 40.275 229.138 41.0167 227.971 42.5V50H225.371ZM257.55 50.3C256.1 50.3 254.975 49.9667 254.175 49.3C253.375 48.6333 252.975 47.7 252.975 46.5C252.975 45.3333 253.359 44.45 254.125 43.85C254.892 43.25 256.009 42.95 257.475 42.95H261.425V42.625C261.425 41.725 261.209 41.0833 260.775 40.7C260.342 40.3 259.617 40.1 258.6 40.1C257.1 40.1 255.717 40.4583 254.45 41.175L253.675 39.05C255.192 38.25 256.917 37.85 258.85 37.85C260.634 37.85 261.942 38.2167 262.775 38.95C263.609 39.6833 264.025 40.8417 264.025 42.425V50H262.1L261.875 48.9C261.209 49.3833 260.525 49.7417 259.825 49.975C259.125 50.1917 258.367 50.3 257.55 50.3ZM258.075 48.05C259.325 48.05 260.442 47.7333 261.425 47.1V44.975H257.65C256.95 44.975 256.434 45.1 256.1 45.35C255.784 45.5833 255.625 45.9417 255.625 46.425C255.625 46.9583 255.825 47.3667 256.225 47.65C256.625 47.9167 257.242 48.05 258.075 48.05ZM287.604 50.3C286.454 50.3 285.388 50.1333 284.404 49.8C283.421 49.4667 282.521 48.95 281.704 48.25L283.079 46.125C283.729 46.6917 284.438 47.1167 285.204 47.4C285.971 47.6667 286.796 47.8 287.679 47.8C288.729 47.8 289.521 47.6 290.054 47.2C290.604 46.7833 290.879 46.1917 290.879 45.425C290.879 44.8083 290.721 44.35 290.404 44.05C290.104 43.7333 289.596 43.4833 288.879 43.3L286.254 42.675C284.921 42.3583 283.938 41.8417 283.304 41.125C282.671 40.4083 282.354 39.4583 282.354 38.275C282.354 36.775 282.854 35.6 283.854 34.75C284.854 33.8833 286.254 33.45 288.054 33.45C290.004 33.45 291.738 34 293.254 35.1L291.954 37.275C290.854 36.3917 289.546 35.95 288.029 35.95C287.046 35.95 286.296 36.1417 285.779 36.525C285.279 36.8917 285.029 37.4333 285.029 38.15C285.029 38.6833 285.179 39.1083 285.479 39.425C285.796 39.725 286.313 39.9583 287.029 40.125L289.654 40.775C290.988 41.0917 291.971 41.6083 292.604 42.325C293.238 43.025 293.554 44.0167 293.554 45.3C293.554 46.85 293.038 48.075 292.004 48.975C290.971 49.8583 289.504 50.3 287.604 50.3ZM297.881 50V38.15H299.906L300.206 39.925C300.84 39.2083 301.531 38.6833 302.281 38.35C303.031 38.0167 303.873 37.85 304.806 37.85C305.99 37.85 306.99 38.1417 307.806 38.725L306.831 41C306.481 40.7333 306.123 40.55 305.756 40.45C305.39 40.3333 304.99 40.275 304.556 40.275C303.006 40.275 301.648 41.0167 300.481 42.5V50H297.881ZM315.483 50V40.5H310.758V38.15H318.083V47.65H322.808V50H315.483ZM316.533 35.775C316 35.775 315.542 35.5917 315.158 35.225C314.792 34.8583 314.608 34.4083 314.608 33.875C314.608 33.325 314.792 32.8667 315.158 32.5C315.542 32.1333 316 31.95 316.533 31.95C317.067 31.95 317.517 32.1333 317.883 32.5C318.267 32.8667 318.458 33.325 318.458 33.875C318.458 34.4083 318.267 34.8583 317.883 35.225C317.517 35.5917 317.067 35.775 316.533 35.775ZM329.585 55.55C328.752 55.55 327.952 55.4417 327.185 55.225C326.435 55.025 325.735 54.7167 325.085 54.3L325.935 52.125C326.452 52.4583 326.985 52.7083 327.535 52.875C328.085 53.0583 328.643 53.15 329.21 53.15C330.077 53.15 330.735 52.925 331.185 52.475C331.635 52.0417 331.86 51.4083 331.86 50.575V40.5H327.135V38.15H334.46V50.975C334.46 52.425 334.035 53.55 333.185 54.35C332.335 55.15 331.135 55.55 329.585 55.55ZM332.91 35.775C332.377 35.775 331.918 35.5917 331.535 35.225C331.168 34.8583 330.985 34.4083 330.985 33.875C330.985 33.325 331.168 32.8667 331.535 32.5C331.918 32.1333 332.377 31.95 332.91 31.95C333.443 31.95 333.893 32.1333 334.26 32.5C334.643 32.8667 334.835 33.325 334.835 33.875C334.835 34.4083 334.643 34.8583 334.26 35.225C333.893 35.5917 333.443 35.775 332.91 35.775ZM344.562 50.3C343.112 50.3 341.987 49.9667 341.187 49.3C340.387 48.6333 339.987 47.7 339.987 46.5C339.987 45.3333 340.37 44.45 341.137 43.85C341.904 43.25 343.02 42.95 344.487 42.95H348.437V42.625C348.437 41.725 348.22 41.0833 347.787 40.7C347.354 40.3 346.629 40.1 345.612 40.1C344.112 40.1 342.729 40.4583 341.462 41.175L340.687 39.05C342.204 38.25 343.929 37.85 345.862 37.85C347.645 37.85 348.954 38.2167 349.787 38.95C350.62 39.6833 351.037 40.8417 351.037 42.425V50H349.112L348.887 48.9C348.22 49.3833 347.537 49.7417 346.837 49.975C346.137 50.1917 345.379 50.3 344.562 50.3ZM345.087 48.05C346.337 48.05 347.454 47.7333 348.437 47.1V44.975H344.662C343.962 44.975 343.445 45.1 343.112 45.35C342.795 45.5833 342.637 45.9417 342.637 46.425C342.637 46.9583 342.837 47.3667 343.237 47.65C343.637 47.9167 344.254 48.05 345.087 48.05ZM355.114 50V38.15H357.039L357.289 39.25C357.939 38.7667 358.589 38.4167 359.239 38.2C359.906 37.9667 360.606 37.85 361.339 37.85C362.722 37.85 363.781 38.2417 364.514 39.025C365.264 39.7917 365.639 40.9083 365.639 42.375V50H363.039V42.775C363.039 41.8583 362.856 41.2083 362.489 40.825C362.139 40.4417 361.547 40.25 360.714 40.25C360.181 40.25 359.664 40.325 359.164 40.475C358.681 40.6083 358.197 40.825 357.714 41.125V50H355.114ZM64.45 100V83.75H67.675L70.2 92.525L72.725 83.75H76.05V100H73.625V87.5L70.925 96.8H69.45L66.75 87.5V100H64.45ZM85.427 100.3C83.377 100.3 81.7603 99.75 80.577 98.65C79.4103 97.5333 78.827 96.0083 78.827 94.075C78.827 92.825 79.077 91.7333 79.577 90.8C80.0936 89.8667 80.8103 89.1417 81.727 88.625C82.6436 88.1083 83.702 87.85 84.902 87.85C86.0853 87.85 87.1103 88.0917 87.977 88.575C88.8436 89.0583 89.5103 89.7417 89.977 90.625C90.4603 91.4917 90.702 92.5167 90.702 93.7C90.702 93.9 90.6936 94.1083 90.677 94.325C90.677 94.525 90.652 94.7417 90.602 94.975H81.477C81.627 95.9917 82.0353 96.7583 82.702 97.275C83.3853 97.7917 84.302 98.05 85.452 98.05C86.752 98.05 88.0103 97.6583 89.227 96.875L90.227 98.825C89.4603 99.3417 88.6936 99.7167 87.927 99.95C87.1603 100.183 86.327 100.3 85.427 100.3ZM81.502 92.95H88.127C88.0103 92.0333 87.6686 91.3333 87.102 90.85C86.552 90.35 85.8103 90.1 84.877 90.1C83.977 90.1 83.2353 90.35 82.652 90.85C82.0686 91.3333 81.6853 92.0333 81.502 92.95ZM94.8539 100V88.15H96.8789L97.1789 89.925C97.8122 89.2083 98.5039 88.6833 99.2539 88.35C100.004 88.0167 100.846 87.85 101.779 87.85C102.962 87.85 103.962 88.1417 104.779 88.725L103.804 91C103.454 90.7333 103.096 90.55 102.729 90.45C102.362 90.3333 101.962 90.275 101.529 90.275C99.9789 90.275 98.6206 91.0167 97.4539 92.5V100H94.8539ZM114.731 100.3C113.431 100.3 112.306 100.05 111.356 99.55C110.406 99.0333 109.673 98.3167 109.156 97.4C108.639 96.4667 108.381 95.3583 108.381 94.075C108.381 92.7917 108.639 91.6917 109.156 90.775C109.673 89.8417 110.406 89.125 111.356 88.625C112.306 88.1083 113.431 87.85 114.731 87.85C116.281 87.85 117.706 88.2583 119.006 89.075L118.081 91.225C117.481 90.875 116.923 90.625 116.406 90.475C115.889 90.325 115.348 90.25 114.781 90.25C113.581 90.25 112.656 90.575 112.006 91.225C111.356 91.875 111.031 92.825 111.031 94.075C111.031 95.325 111.356 96.275 112.006 96.925C112.656 97.575 113.581 97.9 114.781 97.9C115.414 97.9 116.006 97.8167 116.556 97.65C117.106 97.4667 117.714 97.1667 118.381 96.75L119.381 98.825C117.998 99.8083 116.448 100.3 114.731 100.3ZM123.083 100V82.25H125.683V88.95C126.799 88.2167 128.008 87.85 129.308 87.85C130.691 87.85 131.749 88.2417 132.483 89.025C133.233 89.7917 133.608 90.9083 133.608 92.375V100H131.008V92.775C131.008 91.8583 130.824 91.2083 130.458 90.825C130.108 90.4417 129.516 90.25 128.683 90.25C128.149 90.25 127.633 90.325 127.133 90.475C126.649 90.6083 126.166 90.825 125.683 91.125V100H123.083ZM141.535 100.3C140.085 100.3 138.96 99.9667 138.16 99.3C137.36 98.6333 136.96 97.7 136.96 96.5C136.96 95.3333 137.343 94.45 138.11 93.85C138.876 93.25 139.993 92.95 141.46 92.95H145.41V92.625C145.41 91.725 145.193 91.0833 144.76 90.7C144.326 90.3 143.601 90.1 142.585 90.1C141.085 90.1 139.701 90.4583 138.435 91.175L137.66 89.05C139.176 88.25 140.901 87.85 142.835 87.85C144.618 87.85 145.926 88.2167 146.76 88.95C147.593 89.6833 148.01 90.8417 148.01 92.425V100H146.085L145.86 98.9C145.193 99.3833 144.51 99.7417 143.81 99.975C143.11 100.192 142.351 100.3 141.535 100.3ZM142.06 98.05C143.31 98.05 144.426 97.7333 145.41 97.1V94.975H141.635C140.935 94.975 140.418 95.1 140.085 95.35C139.768 95.5833 139.61 95.9417 139.61 96.425C139.61 96.9583 139.81 97.3667 140.21 97.65C140.61 97.9167 141.226 98.05 142.06 98.05ZM152.087 100V88.15H154.012L154.262 89.25C154.912 88.7667 155.562 88.4167 156.212 88.2C156.878 87.9667 157.578 87.85 158.312 87.85C159.695 87.85 160.753 88.2417 161.487 89.025C162.237 89.7917 162.612 90.9083 162.612 92.375V100H160.012V92.775C160.012 91.8583 159.828 91.2083 159.462 90.825C159.112 90.4417 158.52 90.25 157.687 90.25C157.153 90.25 156.637 90.325 156.137 90.475C155.653 90.6083 155.17 90.825 154.687 91.125V100H152.087ZM170.964 100.3C169.397 100.3 168.147 99.7417 167.214 98.625C166.297 97.4917 165.839 95.975 165.839 94.075C165.839 92.175 166.297 90.6667 167.214 89.55C168.147 88.4167 169.397 87.85 170.964 87.85C171.564 87.85 172.155 87.9417 172.739 88.125C173.339 88.3083 173.914 88.5833 174.464 88.95V82.25H177.064V100H175.164L174.914 98.925C173.647 99.8417 172.33 100.3 170.964 100.3ZM171.589 97.9C172.072 97.9 172.555 97.825 173.039 97.675C173.539 97.525 174.014 97.3083 174.464 97.025V91.125C174.014 90.825 173.539 90.6083 173.039 90.475C172.555 90.325 172.072 90.25 171.589 90.25C170.572 90.25 169.797 90.575 169.264 91.225C168.73 91.875 168.464 92.825 168.464 94.075C168.464 95.325 168.73 96.275 169.264 96.925C169.797 97.575 170.572 97.9 171.589 97.9ZM184.966 100V90.5H180.241V88.15H187.566V97.65H192.291V100H184.966ZM186.016 85.775C185.482 85.775 185.024 85.5917 184.641 85.225C184.274 84.8583 184.091 84.4083 184.091 83.875C184.091 83.325 184.274 82.8667 184.641 82.5C185.024 82.1333 185.482 81.95 186.016 81.95C186.549 81.95 186.999 82.1333 187.366 82.5C187.749 82.8667 187.941 83.325 187.941 83.875C187.941 84.4083 187.749 84.8583 187.366 85.225C186.999 85.5917 186.549 85.775 186.016 85.775ZM200.693 100.3C198.509 100.3 196.626 99.8083 195.043 98.825L195.993 96.775C196.676 97.1917 197.418 97.5083 198.218 97.725C199.034 97.9417 199.884 98.05 200.768 98.05C202.651 98.05 203.593 97.5667 203.593 96.6C203.593 96.2167 203.476 95.9417 203.243 95.775C203.026 95.5917 202.643 95.475 202.093 95.425L199.293 95.075C198.043 94.9083 197.118 94.5583 196.518 94.025C195.934 93.4917 195.643 92.7167 195.643 91.7C195.643 90.4667 196.084 89.5167 196.968 88.85C197.868 88.1833 199.143 87.85 200.793 87.85C202.626 87.85 204.318 88.25 205.868 89.05L205.018 91.15C203.768 90.45 202.343 90.1 200.743 90.1C199.076 90.1 198.243 90.5667 198.243 91.5C198.243 91.85 198.351 92.1167 198.568 92.3C198.801 92.4667 199.193 92.5833 199.743 92.65L202.543 93C203.793 93.15 204.709 93.4917 205.293 94.025C205.893 94.5583 206.193 95.3417 206.193 96.375C206.193 97.6417 205.718 98.6167 204.768 99.3C203.834 99.9667 202.476 100.3 200.693 100.3ZM215.945 100.3C213.895 100.3 212.278 99.75 211.095 98.65C209.928 97.5333 209.345 96.0083 209.345 94.075C209.345 92.825 209.595 91.7333 210.095 90.8C210.611 89.8667 211.328 89.1417 212.245 88.625C213.161 88.1083 214.22 87.85 215.42 87.85C216.603 87.85 217.628 88.0917 218.495 88.575C219.361 89.0583 220.028 89.7417 220.495 90.625C220.978 91.4917 221.22 92.5167 221.22 93.7C221.22 93.9 221.211 94.1083 221.195 94.325C221.195 94.525 221.17 94.7417 221.12 94.975H211.995C212.145 95.9917 212.553 96.7583 213.22 97.275C213.903 97.7917 214.82 98.05 215.97 98.05C217.27 98.05 218.528 97.6583 219.745 96.875L220.745 98.825C219.978 99.3417 219.211 99.7167 218.445 99.95C217.678 100.183 216.845 100.3 215.945 100.3ZM212.02 92.95H218.645C218.528 92.0333 218.186 91.3333 217.62 90.85C217.07 90.35 216.328 90.1 215.395 90.1C214.495 90.1 213.753 90.35 213.17 90.85C212.586 91.3333 212.203 92.0333 212.02 92.95ZM227.771 94.3C227.605 93.65 227.521 93.075 227.521 92.575C227.521 91.1083 228.288 90.175 229.821 89.775L230.821 89.5C231.571 89.3167 232.088 89.1 232.371 88.85C232.655 88.6 232.796 88.2333 232.796 87.75C232.796 87.1 232.563 86.6333 232.096 86.35C231.63 86.05 230.896 85.9 229.896 85.9C228.963 85.9 228.121 86.0333 227.371 86.3C226.638 86.55 225.938 86.9583 225.271 87.525L223.871 85.45C224.755 84.7667 225.671 84.2667 226.621 83.95C227.571 83.6167 228.638 83.45 229.821 83.45C231.671 83.45 233.071 83.8083 234.021 84.525C234.988 85.2417 235.471 86.3083 235.471 87.725C235.471 88.7917 235.188 89.6333 234.621 90.25C234.055 90.8667 233.163 91.325 231.946 91.625L230.971 91.875C230.571 91.975 230.271 92.1167 230.071 92.3C229.888 92.4833 229.796 92.7667 229.796 93.15C229.796 93.3 229.813 93.4667 229.846 93.65C229.88 93.8333 229.93 94.05 229.996 94.3H227.771ZM229.071 100.3C228.538 100.3 228.08 100.117 227.696 99.75C227.33 99.3833 227.146 98.925 227.146 98.375C227.146 97.8417 227.33 97.3917 227.696 97.025C228.08 96.6583 228.538 96.475 229.071 96.475C229.621 96.475 230.08 96.6583 230.446 97.025C230.813 97.3917 230.996 97.8417 230.996 98.375C230.996 98.925 230.813 99.3833 230.446 99.75C230.08 100.117 229.621 100.3 229.071 100.3Z" fill="white"/>
<defs>
<linearGradient id="paint0_linear_735_794" x1="290" y1="98.0992" x2="420.99" y2="98.0992" gradientUnits="userSpaceOnUse">
<stop offset="9.48346e-07" stop-color="#D82028"/>
<stop offset="1" stop-color="#532E8F"/>
</linearGradient>
<linearGradient id="paint1_linear_735_794" x1="-0.849625" y1="48.8989" x2="400.998" y2="48.8989" gradientUnits="userSpaceOnUse">
<stop offset="9.48346e-07" stop-color="#D82028"/>
<stop offset="1" stop-color="#532E8F"/>
</linearGradient>
</defs>
</svg>
