<svg width="203" height="86" viewBox="0 0 203 86" fill="none" xmlns="http://www.w3.org/2000/svg">
<path d="M117.835 27.24C116.115 27.24 114.802 26.66 113.895 25.5C112.989 24.34 112.535 22.6733 112.535 20.5C112.535 18.3133 112.989 16.6467 113.895 15.5C114.802 14.34 116.115 13.76 117.835 13.76C118.515 13.76 119.135 13.86 119.695 14.06C120.269 14.26 120.822 14.5867 121.355 15.04L120.555 16.26C120.129 15.8733 119.695 15.6 119.255 15.44C118.829 15.2667 118.355 15.18 117.835 15.18C115.315 15.18 114.055 16.9533 114.055 20.5C114.055 24.0467 115.315 25.82 117.835 25.82C118.422 25.82 118.949 25.72 119.415 25.52C119.882 25.3067 120.362 24.9533 120.855 24.46L121.715 25.62C121.115 26.1933 120.502 26.6067 119.875 26.86C119.262 27.1133 118.582 27.24 117.835 27.24ZM128.597 27.24C127.65 27.24 126.817 27.0333 126.097 26.62C125.377 26.2067 124.817 25.6333 124.417 24.9C124.03 24.1533 123.837 23.2867 123.837 22.3C123.837 21.3133 124.03 20.4533 124.417 19.72C124.817 18.9733 125.377 18.3933 126.097 17.98C126.817 17.5667 127.65 17.36 128.597 17.36C129.557 17.36 130.39 17.5667 131.097 17.98C131.817 18.3933 132.37 18.9733 132.757 19.72C133.157 20.4533 133.357 21.3133 133.357 22.3C133.357 23.2867 133.157 24.1533 132.757 24.9C132.37 25.6333 131.817 26.2067 131.097 26.62C130.39 27.0333 129.557 27.24 128.597 27.24ZM128.597 25.88C129.624 25.88 130.424 25.56 130.997 24.92C131.584 24.28 131.877 23.4067 131.877 22.3C131.877 21.1933 131.584 20.32 130.997 19.68C130.424 19.04 129.624 18.72 128.597 18.72C127.584 18.72 126.784 19.04 126.197 19.68C125.61 20.32 125.317 21.1933 125.317 22.3C125.317 23.4067 125.61 24.28 126.197 24.92C126.784 25.56 127.584 25.88 128.597 25.88ZM142.518 27.24C140.185 27.24 139.018 26.06 139.018 23.7V14.12H135.018V12.8H140.458V23.48C140.458 24.32 140.632 24.9333 140.978 25.32C141.325 25.6933 141.872 25.88 142.618 25.88C143.458 25.88 144.245 25.68 144.978 25.28L145.378 26.56C144.512 27.0133 143.558 27.24 142.518 27.24ZM151.8 27.24C150.853 27.24 150.02 27.0333 149.3 26.62C148.58 26.2067 148.02 25.6333 147.62 24.9C147.233 24.1533 147.04 23.2867 147.04 22.3C147.04 21.3133 147.233 20.4533 147.62 19.72C148.02 18.9733 148.58 18.3933 149.3 17.98C150.02 17.5667 150.853 17.36 151.8 17.36C152.76 17.36 153.593 17.5667 154.3 17.98C155.02 18.3933 155.573 18.9733 155.96 19.72C156.36 20.4533 156.56 21.3133 156.56 22.3C156.56 23.2867 156.36 24.1533 155.96 24.9C155.573 25.6333 155.02 26.2067 154.3 26.62C153.593 27.0333 152.76 27.24 151.8 27.24ZM151.8 25.88C152.827 25.88 153.627 25.56 154.2 24.92C154.787 24.28 155.08 23.4067 155.08 22.3C155.08 21.1933 154.787 20.32 154.2 19.68C153.627 19.04 152.827 18.72 151.8 18.72C150.787 18.72 149.987 19.04 149.4 19.68C148.813 20.32 148.52 21.1933 148.52 22.3C148.52 23.4067 148.813 24.28 149.4 24.92C149.987 25.56 150.787 25.88 151.8 25.88ZM162.622 27.24C161.528 27.24 160.695 26.9467 160.122 26.36C159.548 25.76 159.262 24.8733 159.262 23.7V17.6H160.702V23.48C160.702 24.32 160.875 24.9333 161.222 25.32C161.568 25.6933 162.115 25.88 162.862 25.88C163.408 25.88 163.948 25.7867 164.482 25.6C165.028 25.4133 165.528 25.1533 165.982 24.82V17.6H167.422V27H166.342L166.182 26C165.648 26.4133 165.082 26.7267 164.482 26.94C163.895 27.14 163.275 27.24 162.622 27.24ZM171.683 27V17.6H172.843L173.043 19.24C173.59 18.6133 174.196 18.1467 174.863 17.84C175.543 17.52 176.276 17.36 177.063 17.36C177.943 17.36 178.65 17.5467 179.183 17.92L178.643 19.22C178.39 19.0467 178.123 18.9267 177.843 18.86C177.576 18.78 177.276 18.74 176.943 18.74C175.436 18.74 174.163 19.4533 173.123 20.88V27H171.683Z" fill="white"/>
<circle cx="11" cy="72" r="11" fill="white"/>
<circle cx="117" cy="72" r="11" fill="black"/>
<path d="M137.561 76V65.6H141.257C142.356 65.6 143.166 65.824 143.689 66.272C144.222 66.72 144.489 67.3867 144.489 68.272C144.489 68.848 144.372 69.3227 144.137 69.696C143.902 70.0693 143.534 70.3467 143.033 70.528V70.56C144.196 70.8907 144.777 71.7387 144.777 73.104C144.777 75.0347 143.673 76 141.465 76H137.561ZM139.273 74.432H141.321C141.918 74.432 142.356 74.32 142.633 74.096C142.91 73.8613 143.049 73.488 143.049 72.976C143.049 72.432 142.894 72.0427 142.585 71.808C142.276 71.5627 141.785 71.44 141.113 71.44H139.273V74.432ZM139.273 69.872H140.921C141.593 69.872 142.068 69.7653 142.345 69.552C142.633 69.328 142.777 68.9707 142.777 68.48C142.777 68.0107 142.649 67.6747 142.393 67.472C142.148 67.2693 141.726 67.168 141.129 67.168H139.273V69.872ZM151.914 76.192C149.973 76.192 149.002 75.2267 149.002 73.296V66.16H145.978V64.64H150.666V73.04C150.666 73.6267 150.778 74.0427 151.002 74.288C151.237 74.5333 151.626 74.656 152.17 74.656C152.81 74.656 153.423 74.48 154.01 74.128L154.442 75.552C153.695 75.9787 152.853 76.192 151.914 76.192ZM158.715 76.192C157.787 76.192 157.067 75.9787 156.555 75.552C156.043 75.1253 155.787 74.528 155.787 73.76C155.787 73.0133 156.033 72.448 156.523 72.064C157.014 71.68 157.729 71.488 158.667 71.488H161.195V71.28C161.195 70.704 161.057 70.2933 160.779 70.048C160.502 69.792 160.038 69.664 159.387 69.664C158.427 69.664 157.542 69.8933 156.731 70.352L156.235 68.992C157.206 68.48 158.31 68.224 159.547 68.224C160.689 68.224 161.526 68.4587 162.059 68.928C162.593 69.3973 162.859 70.1387 162.859 71.152V76H161.627L161.483 75.296C161.057 75.6053 160.619 75.8347 160.171 75.984C159.723 76.1227 159.238 76.192 158.715 76.192ZM159.051 74.752C159.851 74.752 160.566 74.5493 161.195 74.144V72.784H158.779C158.331 72.784 158.001 72.864 157.787 73.024C157.585 73.1733 157.483 73.4027 157.483 73.712C157.483 74.0533 157.611 74.3147 157.867 74.496C158.123 74.6667 158.518 74.752 159.051 74.752ZM169.405 76.192C168.573 76.192 167.853 76.032 167.245 75.712C166.637 75.3813 166.167 74.9227 165.837 74.336C165.506 73.7387 165.341 73.0293 165.341 72.208C165.341 71.3867 165.506 70.6827 165.837 70.096C166.167 69.4987 166.637 69.04 167.245 68.72C167.853 68.3893 168.573 68.224 169.405 68.224C170.397 68.224 171.309 68.4853 172.141 69.008L171.549 70.384C171.165 70.16 170.807 70 170.477 69.904C170.146 69.808 169.799 69.76 169.437 69.76C168.669 69.76 168.077 69.968 167.661 70.384C167.245 70.8 167.037 71.408 167.037 72.208C167.037 73.008 167.245 73.616 167.661 74.032C168.077 74.448 168.669 74.656 169.437 74.656C169.842 74.656 170.221 74.6027 170.573 74.496C170.925 74.3787 171.314 74.1867 171.741 73.92L172.381 75.248C171.495 75.8773 170.503 76.192 169.405 76.192ZM174.798 76V64.64H176.462V71.824L179.998 68.416H182.174L178.958 71.424L182.254 76H180.206L177.742 72.576L176.462 73.776V76H174.798Z" fill="white"/>
<path d="M31.9769 76L30.3449 65.6H31.9449L33.0489 72.976L34.2809 66.768H35.6729L36.9049 72.976L38.0249 65.6H39.5289L37.8969 76H36.2809L34.9689 69.456L33.6569 76H31.9769ZM40.9061 76V64.64H42.5701V68.928C43.2848 68.4587 44.0581 68.224 44.8901 68.224C45.7755 68.224 46.4528 68.4747 46.9221 68.976C47.4021 69.4667 47.6421 70.1813 47.6421 71.12V76H45.9781V71.376C45.9781 70.7893 45.8608 70.3733 45.6261 70.128C45.4021 69.8827 45.0235 69.76 44.4901 69.76C44.1488 69.76 43.8181 69.808 43.4981 69.904C43.1888 69.9893 42.8795 70.128 42.5701 70.32V76H40.9061ZM52.6674 76V69.92H49.6434V68.416H54.3314V74.496H57.3554V76H52.6674ZM53.3394 66.896C52.998 66.896 52.7047 66.7787 52.4594 66.544C52.2247 66.3093 52.1074 66.0213 52.1074 65.68C52.1074 65.328 52.2247 65.0347 52.4594 64.8C52.7047 64.5653 52.998 64.448 53.3394 64.448C53.6807 64.448 53.9687 64.5653 54.2034 64.8C54.4487 65.0347 54.5714 65.328 54.5714 65.68C54.5714 66.0213 54.4487 66.3093 54.2034 66.544C53.9687 66.7787 53.6807 66.896 53.3394 66.896ZM64.1246 76.192C62.1833 76.192 61.2126 75.2267 61.2126 73.296V69.92H58.9246V68.416H61.2126V66.176L62.8766 65.408V68.416H65.8526V69.92H62.8766V73.04C62.8766 73.6267 62.9886 74.0427 63.2126 74.288C63.4473 74.5333 63.8366 74.656 64.3806 74.656C65.0206 74.656 65.634 74.48 66.2206 74.128L66.6526 75.552C65.906 75.9787 65.0633 76.192 64.1246 76.192ZM72.4939 76.192C71.1819 76.192 70.1472 75.84 69.3899 75.136C68.6432 74.4213 68.2699 73.4453 68.2699 72.208C68.2699 71.408 68.4299 70.7093 68.7499 70.112C69.0805 69.5147 69.5392 69.0507 70.1259 68.72C70.7125 68.3893 71.3899 68.224 72.1579 68.224C72.9152 68.224 73.5712 68.3787 74.1259 68.688C74.6805 68.9973 75.1072 69.4347 75.4059 70C75.7152 70.5547 75.8699 71.2107 75.8699 71.968C75.8699 72.096 75.8645 72.2293 75.8539 72.368C75.8539 72.496 75.8379 72.6347 75.8059 72.784H69.9659C70.0619 73.4347 70.3232 73.9253 70.7499 74.256C71.1872 74.5867 71.7739 74.752 72.5099 74.752C73.3419 74.752 74.1472 74.5013 74.9259 74L75.5659 75.248C75.0752 75.5787 74.5845 75.8187 74.0939 75.968C73.6032 76.1173 73.0699 76.192 72.4939 76.192ZM69.9819 71.488H74.2219C74.1472 70.9013 73.9285 70.4533 73.5659 70.144C73.2139 69.824 72.7392 69.664 72.1419 69.664C71.5659 69.664 71.0912 69.824 70.7179 70.144C70.3445 70.4533 70.0992 70.9013 69.9819 71.488Z" fill="white"/>
</svg>
