<svg width="183" height="93" viewBox="0 0 183 93" fill="none" xmlns="http://www.w3.org/2000/svg">
<g clip-path="url(#clip0_2_106)">
<rect width="183" height="93" fill="#141414"/>
<path d="M179 55L158.966 72H124" stroke="url(#paint0_linear_2_106)" stroke-width="2" stroke-miterlimit="10"/>
<path d="M13 69V40.3099L36.9075 23H164" stroke="url(#paint1_linear_2_106)" stroke-width="2" stroke-miterlimit="10"/>
<path d="M41.25 55.3C39.0833 55.3 37.425 54.575 36.275 53.125C35.1417 51.675 34.575 49.5917 34.575 46.875C34.575 44.1417 35.1417 42.0583 36.275 40.625C37.425 39.175 39.0833 38.45 41.25 38.45C42.15 38.45 42.9667 38.5833 43.7 38.85C44.4333 39.1167 45.1333 39.5417 45.8 40.125L44.6 41.95C44.0667 41.4833 43.5333 41.15 43 40.95C42.4667 40.7333 41.8917 40.625 41.275 40.625C38.375 40.625 36.925 42.7083 36.925 46.875C36.925 51.0417 38.375 53.125 41.275 53.125C41.975 53.125 42.6083 53 43.175 52.75C43.7583 52.4833 44.35 52.05 44.95 51.45L46.275 53.175C45.525 53.925 44.75 54.4667 43.95 54.8C43.15 55.1333 42.25 55.3 41.25 55.3ZM54.752 55.3C53.5686 55.3 52.5186 55.0417 51.602 54.525C50.702 54.0083 50.002 53.2833 49.502 52.35C49.002 51.4167 48.752 50.3333 48.752 49.1C48.752 47.85 49.002 46.7667 49.502 45.85C50.002 44.9167 50.702 44.1917 51.602 43.675C52.5186 43.1583 53.5686 42.9 54.752 42.9C55.952 42.9 57.002 43.1583 57.902 43.675C58.802 44.1917 59.502 44.9167 60.002 45.85C60.502 46.7667 60.752 47.85 60.752 49.1C60.752 50.3333 60.502 51.4167 60.002 52.35C59.502 53.2833 58.802 54.0083 57.902 54.525C57.002 55.0417 55.952 55.3 54.752 55.3ZM54.752 53.2C55.9186 53.2 56.827 52.8417 57.477 52.125C58.127 51.3917 58.452 50.3833 58.452 49.1C58.452 47.8167 58.127 46.8083 57.477 46.075C56.827 45.3417 55.9186 44.975 54.752 44.975C53.602 44.975 52.6936 45.3417 52.027 46.075C51.377 46.8083 51.052 47.8167 51.052 49.1C51.052 50.3833 51.377 51.3917 52.027 52.125C52.6936 52.8417 53.602 53.2 54.752 53.2ZM64.1539 55V43.2H65.8289L66.0539 44.35C66.7039 43.85 67.3706 43.4833 68.0539 43.25C68.7539 43.0167 69.4956 42.9 70.2789 42.9C71.6622 42.9 72.7122 43.275 73.4289 44.025C74.1622 44.775 74.5289 45.8917 74.5289 47.375V55H72.2789V47.725C72.2789 46.7417 72.0789 46.0417 71.6789 45.625C71.2956 45.1917 70.6622 44.975 69.7789 44.975C69.1956 44.975 68.6122 45.0667 68.0289 45.25C67.4622 45.4333 66.9206 45.7 66.4039 46.05V55H64.1539ZM85.9309 55.3C82.9642 55.3 81.4809 53.8083 81.4809 50.825V45.225H77.7559V43.2H81.4809V39.55L83.7309 38.45V43.2H88.5309V45.225H83.7309V50.475C83.7309 51.4417 83.9225 52.1417 84.3059 52.575C84.7059 52.9917 85.3475 53.2 86.2309 53.2C87.2475 53.2 88.2142 52.9417 89.1309 52.425L89.7309 54.375C88.5975 54.9917 87.3309 55.3 85.9309 55.3ZM97.0828 55.3C95.6495 55.3 94.5328 54.9667 93.7328 54.3C92.9495 53.6333 92.5578 52.7083 92.5578 51.525C92.5578 50.3917 92.9328 49.525 93.6828 48.925C94.4328 48.325 95.5411 48.025 97.0078 48.025H101.208V47.65C101.208 46.65 100.974 45.9417 100.508 45.525C100.041 45.1083 99.2495 44.9 98.1328 44.9C96.6161 44.9 95.2245 45.25 93.9578 45.95L93.2578 44.075C94.7411 43.2917 96.4245 42.9 98.3078 42.9C100.091 42.9 101.391 43.2667 102.208 44C103.041 44.7167 103.458 45.85 103.458 47.4V55H101.783L101.533 53.85C100.866 54.3333 100.166 54.7 99.4328 54.95C98.6995 55.1833 97.9161 55.3 97.0828 55.3ZM97.4828 53.275C98.8828 53.275 100.124 52.9083 101.208 52.175V49.875H97.0828C96.3161 49.875 95.7495 50.0083 95.3828 50.275C95.0328 50.5417 94.8578 50.9417 94.8578 51.475C94.8578 52.075 95.0745 52.525 95.5078 52.825C95.9411 53.125 96.5995 53.275 97.4828 53.275ZM113.735 55.3C112.435 55.3 111.31 55.05 110.36 54.55C109.426 54.05 108.701 53.3333 108.185 52.4C107.668 51.4667 107.41 50.3667 107.41 49.1C107.41 47.8167 107.668 46.7167 108.185 45.8C108.701 44.8667 109.426 44.15 110.36 43.65C111.31 43.15 112.435 42.9 113.735 42.9C115.285 42.9 116.71 43.3083 118.01 44.125L117.185 45.975C116.601 45.625 116.035 45.375 115.485 45.225C114.935 45.0583 114.36 44.975 113.76 44.975C112.46 44.975 111.46 45.3333 110.76 46.05C110.06 46.75 109.71 47.7667 109.71 49.1C109.71 50.4333 110.06 51.45 110.76 52.15C111.46 52.85 112.46 53.2 113.76 53.2C114.41 53.2 115.026 53.1083 115.61 52.925C116.21 52.7417 116.843 52.4417 117.51 52.025L118.385 53.825C116.985 54.8083 115.435 55.3 113.735 55.3ZM129.437 55.3C126.47 55.3 124.987 53.8083 124.987 50.825V45.225H121.262V43.2H124.987V39.55L127.237 38.45V43.2H132.037V45.225H127.237V50.475C127.237 51.4417 127.428 52.1417 127.812 52.575C128.212 52.9917 128.853 53.2 129.737 53.2C130.753 53.2 131.72 52.9417 132.637 52.425L133.237 54.375C132.103 54.9917 130.837 55.3 129.437 55.3ZM141.714 55.3C139.597 55.3 137.73 54.8167 136.114 53.85L136.989 52C137.672 52.4167 138.422 52.7333 139.239 52.95C140.055 53.1667 140.905 53.275 141.789 53.275C143.822 53.275 144.839 52.725 144.839 51.625C144.839 51.1917 144.714 50.8833 144.464 50.7C144.214 50.5 143.764 50.3583 143.114 50.275L140.314 49.9C139.064 49.7333 138.147 49.4 137.564 48.9C136.997 48.3833 136.714 47.6333 136.714 46.65C136.714 45.45 137.147 44.525 138.014 43.875C138.897 43.225 140.147 42.9 141.764 42.9C143.564 42.9 145.239 43.3 146.789 44.1L146.014 45.95C144.73 45.25 143.297 44.9 141.714 44.9C139.897 44.9 138.989 45.425 138.989 46.475C138.989 46.8917 139.114 47.2 139.364 47.4C139.63 47.5833 140.08 47.7167 140.714 47.8L143.514 48.15C144.764 48.3167 145.672 48.6583 146.239 49.175C146.822 49.6917 147.114 50.45 147.114 51.45C147.114 52.6833 146.647 53.6333 145.714 54.3C144.797 54.9667 143.464 55.3 141.714 55.3Z" fill="white"/>
</g>
<defs>
<linearGradient id="paint0_linear_2_106" x1="124" y1="63.577" x2="179.448" y2="63.577" gradientUnits="userSpaceOnUse">
<stop offset="9.48346e-07" stop-color="#D82028"/>
<stop offset="1" stop-color="#532E8F"/>
</linearGradient>
<linearGradient id="paint1_linear_2_106" x1="12.3018" y1="45.7149" x2="163.999" y2="45.7149" gradientUnits="userSpaceOnUse">
<stop offset="9.48346e-07" stop-color="#D82028"/>
<stop offset="1" stop-color="#532E8F"/>
</linearGradient>
<clipPath id="clip0_2_106">
<rect width="183" height="93" fill="white"/>
</clipPath>
</defs>
</svg>
