<svg width="35" height="27" viewBox="0 0 35 27" fill="none" xmlns="http://www.w3.org/2000/svg">
<path d="M14.32 0.0399952L15.28 3.96C12.4533 4.65333 10.32 5.93333 8.88 7.8C7.44 9.61333 6.50667 11.9333 6.08 14.76C6.29333 14.7067 6.48 14.68 6.64 14.68C6.85333 14.6267 7.06667 14.6 7.28 14.6C8.82667 14.6 10.1067 15.16 11.12 16.28C12.1333 17.3467 12.64 18.68 12.64 20.28C12.64 21.88 12.1067 23.2667 11.04 24.44C9.97333 25.6133 8.56 26.2 6.8 26.2C5.2 26.2 3.76 25.6133 2.48 24.44C1.25333 23.2667 0.64 21.2133 0.64 18.28C0.64 15.9867 1.12 13.5867 2.08 11.08C3.04 8.57333 4.50667 6.30666 6.48 4.28C8.50667 2.25333 11.12 0.839998 14.32 0.0399952ZM34 0.0399952L34.96 3.96C32.1333 4.65333 30 5.93333 28.56 7.8C27.12 9.61333 26.1867 11.9333 25.76 14.76C25.9733 14.7067 26.16 14.68 26.32 14.68C26.5333 14.6267 26.7467 14.6 26.96 14.6C28.5067 14.6 29.7867 15.16 30.8 16.28C31.8133 17.3467 32.32 18.68 32.32 20.28C32.32 21.88 31.7867 23.2667 30.72 24.44C29.6533 25.6133 28.24 26.2 26.48 26.2C24.88 26.2 23.44 25.6133 22.16 24.44C20.9333 23.2667 20.32 21.2133 20.32 18.28C20.32 15.9867 20.8 13.5867 21.76 11.08C22.72 8.57333 24.1867 6.30666 26.16 4.28C28.1867 2.25333 30.8 0.839998 34 0.0399952Z" fill="white"/>
</svg>
