<svg width="100" height="101" viewBox="0 0 100 101" fill="none" xmlns="http://www.w3.org/2000/svg">
<path d="M50 0.0332031C77.6194 0.0332031 100 22.4216 100 50.0332C100 77.6448 77.6194 100.033 50 100.033C22.3806 100.033 0 77.6448 0 50.0332C0 22.4216 22.3806 0.0332031 50 0.0332031Z" fill="#91278F"/>
<path fill-rule="evenodd" clip-rule="evenodd" d="M12.8657 31.1835L14.9017 30.6823L14.056 32.6009L15.1601 34.3785L13.0771 34.1749L11.7224 35.7724L11.2838 33.7285L9.3418 32.9376L11.1507 31.8805L11.2995 29.7896L12.8657 31.1835ZM88.6997 29.7896L88.8563 31.8805L90.6574 32.9376L88.7232 33.7285L88.2768 35.7724L86.9221 34.1749L84.8391 34.3785L85.9432 32.6009L85.1053 30.6902L87.1335 31.1835L88.6997 29.7896ZM25.3559 16.2344L27.3841 15.7332L26.5462 17.6518L27.6503 19.4294L25.5673 19.2258L24.2126 20.8233L23.7662 18.7794L21.832 17.9885L23.6331 16.9313L23.7897 14.8405L25.3559 16.2344ZM76.2173 14.8483L76.3739 16.9313L78.175 17.9885L76.2408 18.7794L75.7944 20.8233L74.4397 19.2258L72.3567 19.4372L73.4608 17.6518L72.6229 15.7411L74.6511 16.2344L76.2173 14.8483ZM90.0779 60.6353C90.0779 63.3135 85.6143 65.7489 78.4021 67.5265C71.1351 69.3198 61.0959 70.4317 50.0074 70.4317C38.9189 70.4317 28.8798 69.3198 21.6127 67.5265C14.4005 65.7489 9.93694 63.3135 9.93694 60.6353C9.93694 60.0637 10.1405 59.4999 10.5399 58.9517C10.707 58.7272 10.9027 58.5027 11.1272 58.2783L11.1116 58.3096C10.861 58.7246 10.7279 59.1553 10.7279 59.5938C10.7279 62.1075 15.1445 64.3707 22.294 65.9916C29.3888 67.597 39.1852 68.5915 50.0074 68.5915C60.8297 68.5915 70.6261 67.597 77.7208 65.9916C84.8625 64.3707 89.287 62.1075 89.287 59.5938C89.287 59.1553 89.1539 58.7246 88.9033 58.3096L88.8876 58.2783C89.1121 58.5027 89.3079 58.7272 89.4749 58.9517C89.8743 59.4999 90.0779 60.0637 90.0779 60.6353ZM51.7694 60.3456C50.5712 59.1083 50.0466 57.3777 50.0466 55.7646C50.0466 54.0888 50.4694 52.2798 51.6754 51.0034C52.6229 50.001 54.056 49.3354 56.139 49.3354C58.1515 49.3354 59.5454 50.001 60.4694 51.0112C61.6441 52.2798 62.0591 54.0966 62.0591 55.7646C62.0591 57.3855 61.5971 59.1318 60.4303 60.3691C59.4906 61.3558 58.1045 62.0214 56.139 62.0214C54.1734 62.0214 52.7404 61.348 51.7694 60.3456ZM53.1006 52.0057C52.2549 53.0238 51.9495 54.4646 51.9495 55.7646C51.9495 57.0958 52.2862 58.4427 53.0928 59.3824C53.7506 60.1498 54.7451 60.651 56.139 60.651C57.4702 60.651 58.4256 60.1498 59.0756 59.3746C59.8508 58.4349 60.1797 57.0958 60.1797 55.7646C60.1797 54.3942 59.9135 52.9689 59.1225 51.9744C58.5039 51.207 57.5485 50.698 56.139 50.698C54.7294 50.698 53.7506 51.2305 53.1006 52.0057ZM59.9448 43.6346C58.7467 42.4051 58.2298 40.6745 58.2298 39.0535C58.2298 36.0621 59.5689 32.6244 64.3222 32.6244C66.3348 32.6244 67.7208 33.2978 68.6527 34.3002C69.8195 35.5766 70.2423 37.3855 70.2423 39.0535V39.124V39.1945L70.2345 39.2649V39.3276C70.2345 39.3537 70.2345 39.3772 70.2345 39.3981L70.2267 39.4685V39.539V39.6095C70.2189 39.6408 70.2189 39.6565 70.2189 39.68C70.2136 39.7061 70.211 39.727 70.211 39.7426V39.7505L70.2032 39.8131L70.1954 39.8836L70.1875 39.9541V40.0245L70.1797 40.095L70.164 40.1655L70.1562 40.236L70.1484 40.3064L70.1327 40.3691L70.1249 40.4396L70.1092 40.5101L70.1014 40.5805L70.0857 40.651L70.0701 40.7215L70.0544 40.7841C70.0544 40.7998 70.0492 40.8233 70.0387 40.8546L70.0231 40.9564H70.0153L70.0074 40.9956C69.997 41.0425 69.9865 41.0869 69.9761 41.1287L69.9526 41.2227H69.9448L69.9369 41.2696L69.9135 41.3323C69.9082 41.3532 69.903 41.3767 69.8978 41.4028L69.8665 41.4889L69.8508 41.5359C69.8351 41.5777 69.8195 41.622 69.8038 41.669L69.7803 41.7317C69.7751 41.7578 69.7673 41.7813 69.7568 41.8021C69.7464 41.8282 69.7386 41.8491 69.7333 41.8648C69.7255 41.8726 69.7255 41.8804 69.702 41.9353C69.6916 41.9614 69.6837 41.9823 69.6785 41.9979C69.6681 42.0292 69.6576 42.0501 69.6472 42.0606L69.6159 42.1389L69.5924 42.1937L69.5846 42.2015V42.2093L69.5767 42.225L69.5611 42.2642L69.5297 42.319L69.4984 42.3895L69.4671 42.4443L69.4514 42.4756L69.4358 42.5069V42.5148H69.4279C69.4175 42.5304 69.4071 42.5487 69.3966 42.5696C69.3914 42.5852 69.381 42.6061 69.3653 42.6322C69.3549 42.6479 69.3444 42.6688 69.334 42.6949C69.3235 42.7105 69.3105 42.7288 69.2948 42.7497V42.7575C69.2844 42.7732 69.2713 42.7914 69.2557 42.8123L69.2243 42.875C69.2087 42.8906 69.1956 42.9115 69.1852 42.9376L69.146 42.9924H69.1382C69.1278 43.0133 69.1147 43.0316 69.099 43.0472L69.0677 43.1099H69.0599C69.0442 43.1334 69.0364 43.149 69.0207 43.1647L69.0129 43.1725L68.9816 43.2195L68.9737 43.2274C68.9581 43.2482 68.945 43.2665 68.9346 43.2822L68.8954 43.3292L68.8876 43.337C68.8798 43.3526 68.8641 43.3683 68.8485 43.3918L68.8171 43.431L68.8093 43.4388L68.8015 43.4466C68.7806 43.4727 68.7649 43.491 68.7545 43.5014L68.7153 43.5484L68.7075 43.5563C68.6918 43.5719 68.6762 43.5902 68.6605 43.6111L68.6214 43.6502L68.6135 43.6659C68.5926 43.6763 68.5744 43.692 68.5587 43.7129C68.5326 43.739 68.517 43.7572 68.5117 43.7677L68.4569 43.8147C68.436 43.8356 68.4178 43.8512 68.4021 43.8617C68.3969 43.8721 68.3786 43.8904 68.3473 43.9165L68.2925 43.9635C68.2768 43.9791 68.2533 44.0026 68.2377 44.0104C68.2011 44.0418 68.1646 44.0731 68.128 44.1044C68.1019 44.1253 68.0836 44.141 68.0732 44.1514C68.0575 44.1671 68.0367 44.1827 68.0106 44.1984C67.9949 44.2088 67.9766 44.2245 67.9557 44.2454C67.9296 44.261 67.9088 44.2741 67.8931 44.2845C67.8853 44.2924 67.8618 44.308 67.8304 44.3315C67.8096 44.3419 67.7887 44.355 67.7678 44.3707C67.7469 44.3863 67.726 44.3994 67.7052 44.4098C67.6843 44.4255 67.6634 44.4411 67.6425 44.4568C67.6268 44.462 67.606 44.4751 67.5799 44.496L67.5094 44.5351C67.4937 44.5456 67.4728 44.5586 67.4467 44.5743C67.4154 44.5899 67.3919 44.6004 67.3763 44.6056C67.3502 44.6265 67.3293 44.6395 67.3136 44.6447C67.2875 44.6552 67.264 44.6682 67.2431 44.6839C67.2118 44.6996 67.1883 44.71 67.1727 44.7152C67.1648 44.7152 67.1413 44.7309 67.1022 44.7465C67.0656 44.7674 67.0395 44.7805 67.0239 44.7857C67.0134 44.7909 66.9899 44.8014 66.9534 44.817C66.9168 44.8327 66.8933 44.8431 66.8829 44.8483C66.8672 44.8536 66.8411 44.864 66.8046 44.8797C66.7628 44.8953 66.7393 44.9032 66.7341 44.9032C66.7132 44.9136 66.6871 44.924 66.6558 44.9345C66.5984 44.9554 66.5462 44.9736 66.4992 44.9893C66.447 45.005 66.3922 45.0206 66.3348 45.0363C66.3139 45.0467 66.2878 45.0572 66.2564 45.0676C66.2251 45.0754 66.1938 45.0833 66.1703 45.0833C66.1442 45.0937 66.1181 45.1015 66.092 45.1068C66.0555 45.1172 66.0267 45.125 66.0059 45.1303C65.9537 45.1407 65.8962 45.1538 65.8336 45.1694C65.8023 45.1746 65.7735 45.1798 65.7474 45.1851C65.7318 45.1903 65.7031 45.1955 65.6613 45.2007C65.6195 45.206 65.5882 45.2112 65.5673 45.2164C65.5256 45.2216 65.4969 45.2268 65.4812 45.2321C65.4603 45.2321 65.429 45.2373 65.3872 45.2477C65.3455 45.2529 65.3141 45.2556 65.2932 45.2556C65.2724 45.2608 65.241 45.2634 65.1993 45.2634C65.1784 45.2686 65.1471 45.2738 65.1053 45.279C65.0583 45.279 65.027 45.2817 65.0113 45.2869C64.9852 45.2869 64.9539 45.2895 64.9174 45.2947C64.8913 45.2947 64.8599 45.2973 64.8234 45.3025C64.7921 45.3025 64.7607 45.3025 64.7216 45.3025C64.6903 45.3078 64.6589 45.3104 64.6276 45.3104C64.5911 45.3104 64.5571 45.3104 64.5258 45.3104C64.4423 45.3156 64.3744 45.3182 64.3222 45.3182C62.3567 45.3182 60.9236 44.6447 59.9448 43.6346ZM61.276 35.3025C60.4381 36.3127 60.1327 37.7614 60.1327 39.0535C60.1327 40.3926 60.4616 41.7395 61.2682 42.6792C61.9338 43.4466 62.9205 43.9478 64.3222 43.9478C65.6535 43.9478 66.6088 43.4466 67.251 42.6714C68.034 41.7317 68.3629 40.3926 68.3629 39.0535C68.3629 37.6909 68.0967 36.2579 67.3058 35.2712C66.6871 34.5038 65.7318 33.9948 64.3222 33.9948C62.9048 33.9948 61.926 34.5195 61.276 35.3025ZM48.5665 43.6894C48.731 43.8852 48.9659 44.0183 49.2557 44.0183L49.381 44.0261H49.5297C49.6472 44.0261 49.7568 44.0731 49.8351 44.1514C49.9135 44.2297 49.9604 44.3393 49.9604 44.4646C49.9604 44.5821 49.9135 44.6917 49.8351 44.77C49.7568 44.8562 49.6472 44.9032 49.5297 44.9032H48.3943C47.6738 44.9032 47.1883 44.6682 46.8594 44.308C46.46 43.8538 46.3269 43.2039 46.3269 42.5931V37.7693C46.3269 36.485 46.186 35.5688 45.8101 34.9815C45.4499 34.402 44.8704 34.1436 43.9855 34.1436C43.038 34.1436 42.294 34.5899 41.7694 35.2947C41.1742 36.0856 40.861 37.2054 40.861 38.3487V42.9376C40.861 43.2274 40.9393 43.5328 41.1507 43.7442C41.3152 43.9086 41.5736 44.0183 41.9495 44.0183H42.3097L42.388 44.0496C42.5524 44.1827 42.6308 44.3237 42.6308 44.4646C42.6308 44.6134 42.5446 44.7465 42.388 44.8718L42.3097 44.9032H37.7052L37.6347 44.8797C37.4389 44.7465 37.3606 44.6056 37.3684 44.4568C37.3763 44.308 37.4702 44.1749 37.6268 44.0496L37.7052 44.0183H38.1437C38.4334 44.0183 38.637 43.9165 38.7701 43.752C38.9424 43.5406 39.0129 43.2274 39.0129 42.9376V37.8945C39.0129 36.6025 38.8641 35.6549 38.5039 35.0363C38.1593 34.4333 37.6112 34.1436 36.7811 34.1436C35.7161 34.1436 34.9409 34.6213 34.4162 35.3887C33.8132 36.2892 33.5391 37.597 33.5391 39.0065V42.9376C33.5391 43.2274 33.6174 43.5328 33.821 43.7442C33.9855 43.9086 34.2283 44.0183 34.6041 44.0183H34.7529V44.0261H34.8626C34.98 44.0261 35.0896 44.0731 35.168 44.1514C35.2463 44.2297 35.2932 44.3393 35.2932 44.4646C35.2932 44.5821 35.2463 44.6917 35.168 44.77C35.0896 44.8562 34.98 44.9032 34.8626 44.9032H30.3598C30.2345 44.9032 30.1327 44.8562 30.0544 44.77C29.9761 44.6917 29.9291 44.5821 29.9291 44.4646C29.9291 44.3393 29.9761 44.2297 30.0544 44.1514C30.1327 44.0731 30.2345 44.0261 30.3598 44.0261H30.5086L30.6182 44.0183C30.955 44.0104 31.1899 43.9008 31.3543 43.7364C31.5736 43.5171 31.6597 43.2117 31.6832 42.9533V41.8021H31.6911V36.0935C31.6911 35.2712 31.5188 35.0519 31.2917 35.0519C31.1507 35.0519 30.9628 35.1303 30.7827 35.2007C30.6104 35.2712 30.4303 35.3417 30.2658 35.3652C29.9213 35.4043 29.6472 35.2555 29.5689 34.5743C29.4671 33.7442 29.702 33.243 30.1014 32.9924C30.3363 32.8436 30.6182 32.7888 30.9236 32.7967C31.2212 32.8123 31.5423 32.8985 31.8477 33.0316C32.5759 33.3448 33.2494 33.9713 33.4373 34.6839C33.7506 34.1827 34.2126 33.7129 34.7764 33.3527C35.395 32.9689 36.1311 32.7262 36.9299 32.7262C37.9088 32.7262 38.6448 32.9689 39.2008 33.3605C39.8038 33.7755 40.1875 34.3628 40.4381 34.9658C40.7592 34.3785 41.229 33.799 41.8477 33.3761C42.4272 32.9846 43.1398 32.7262 43.9855 32.7262C45.4029 32.7262 46.3974 33.1412 47.0709 33.799C47.8774 34.5821 48.2063 35.7019 48.2063 36.8217V41.6142V42.8123C48.2298 43.1021 48.3473 43.4388 48.5665 43.6894ZM84.1421 54.402C84.1421 56.2971 83.5 56.2971 81.9573 56.2971C80.0701 56.2971 78.9894 56.2971 78.2925 56.3597C77.6112 56.4145 77.298 56.532 76.9299 56.7669L76.8438 56.8217L76.7733 56.7512C76.6793 56.6494 76.6088 56.5085 76.5618 56.3597C76.4835 56.1561 76.4444 55.929 76.4444 55.835C76.4444 54.958 77.6268 54.958 78.7075 54.958H81.6597C81.8868 54.958 82.0513 54.9267 82.1531 54.8483C82.2392 54.77 82.2862 54.6447 82.2862 54.4255C82.2862 53.3683 81.9965 52.3503 81.37 51.6377C80.8297 51.0191 80.0387 50.6275 78.9737 50.6275C77.7052 50.6275 76.7576 51.1757 76.0998 52.0214C75.3246 53.0159 74.9565 54.4255 74.9565 55.835C74.9565 57.0801 75.3716 58.3252 76.1077 59.2336C76.7733 60.048 77.6973 60.5805 78.8015 60.5805C79.9604 60.5805 80.7592 60.2595 81.3308 59.8444C81.9025 59.4294 82.2549 58.9126 82.5055 58.5054L82.5524 58.4192L82.6543 58.4584C82.8657 58.5367 83.0615 58.7011 83.2181 58.8812C83.3825 59.0848 83.4843 59.3119 83.4843 59.492C83.4843 60.1185 83.0536 60.792 82.1061 61.2696C81.3465 61.6455 80.258 61.8961 78.8015 61.8961C76.9769 61.8961 75.6221 61.2383 74.6903 60.2516C73.5391 59.0457 73.0301 57.362 73.0301 55.835C73.0301 53.9321 73.5783 52.2485 74.6668 51.066C75.677 49.9697 77.1335 49.3119 79.0442 49.3119C80.5321 49.3119 81.8085 49.8366 82.7169 50.745C83.6096 51.6377 84.1421 52.9063 84.1421 54.402ZM67.8539 50.142C68.3943 49.774 69.0364 49.5547 69.6629 49.5547C70.6261 49.5547 71.3073 49.7818 71.7694 50.1655C72.3019 50.6119 72.529 51.2461 72.529 51.9588C72.529 52.3111 72.4193 52.7105 72.1922 53.0003C72.0043 53.243 71.7224 53.4153 71.3622 53.4153C70.7748 53.4153 70.5947 53.0316 70.5947 53.0238L70.5478 52.9376L70.6339 52.875C70.6652 52.8515 70.7279 52.7027 70.7827 52.5304C70.8297 52.3816 70.8688 52.2093 70.8688 52.0762C70.8688 51.716 70.767 51.3714 70.5243 51.1287C70.3128 50.9251 69.9996 50.7998 69.5689 50.7998C68.7623 50.7998 68.1045 51.2931 67.6268 52.0762C67.1022 52.9376 66.8124 54.1436 66.8124 55.42V57.4404H66.8203V59.6565C66.8203 59.9541 66.8907 60.2595 67.0943 60.4709C67.2588 60.6353 67.5094 60.745 67.8774 60.745H68.0262H68.1437C68.2611 60.745 68.3708 60.792 68.4491 60.8781C68.5196 60.9564 68.5744 61.066 68.5744 61.1835C68.5744 61.301 68.5196 61.4184 68.4491 61.4967C68.3708 61.575 68.2611 61.622 68.1437 61.622H63.6331C63.5156 61.622 63.406 61.575 63.3277 61.4967C63.2494 61.4184 63.2024 61.301 63.2024 61.1835C63.2024 61.066 63.2494 60.9564 63.3277 60.8781C63.406 60.792 63.5156 60.745 63.6331 60.745H63.7897H63.8915C64.2283 60.7371 64.471 60.6197 64.6276 60.4631C64.8469 60.2438 64.9409 59.9306 64.9565 59.68V59.0692V52.3033C64.9017 51.7865 64.7373 51.6612 64.5337 51.6847C64.3927 51.7003 64.2361 51.7708 64.0716 51.8335C63.8994 51.9039 63.7192 51.9744 63.5548 51.9901C63.2102 52.0371 62.9362 51.8883 62.8579 51.207C62.7561 50.3769 62.991 49.8758 63.3904 49.6252C63.6018 49.492 63.8524 49.4294 64.1265 49.4294C64.3849 49.4294 64.6668 49.4842 64.9487 49.586C65.7396 49.8758 66.5149 50.5335 66.7263 51.3088C66.9925 50.8546 67.3919 50.4474 67.8539 50.142ZM24.471 50.236C25.2619 50.9094 25.7005 51.9744 25.7005 53.5797C25.7005 54.2219 25.6926 54.8718 25.6848 55.5218C25.6691 56.8609 25.6613 58.1999 25.7005 59.5155C25.7083 59.8053 25.8257 60.142 26.045 60.3848C26.2173 60.5884 26.46 60.7215 26.7498 60.7293H26.8751H27.0239C27.1413 60.7293 27.251 60.7763 27.3293 60.8624C27.4076 60.9408 27.4546 61.0504 27.4546 61.1678C27.4546 61.2931 27.4076 61.4028 27.3293 61.4811C27.251 61.5594 27.1413 61.6064 27.0239 61.6064H25.8884C25.0662 61.6064 24.5493 61.3245 24.2282 60.8859C23.9228 60.4552 23.821 59.8836 23.821 59.3041C23.821 58.9439 23.821 58.6776 23.821 57.7066V57.088C23.8132 56.9235 23.8132 56.7669 23.8054 56.626C23.7976 56.2266 23.7897 56.023 23.7036 55.9447C23.594 55.8429 23.3277 55.8429 22.756 55.8429C22.6621 55.8429 22.5577 55.8429 22.4428 55.8429H22.4037C21.5893 55.8429 20.4303 56.023 19.4828 56.4458C18.5509 56.853 17.8304 57.4795 17.8226 58.3879V58.4036C17.8226 59.077 18.0575 59.5704 18.4021 59.9149C18.8328 60.3378 19.4279 60.5335 19.9761 60.5335C21.5266 60.5335 22.1687 59.4999 22.1687 59.4999L22.2079 59.4372H22.2784C22.3645 59.4372 22.5838 59.5782 22.7404 59.774C22.8344 59.9071 22.9127 60.0715 22.9127 60.2438C22.9127 60.5257 22.8422 60.9173 22.4115 61.2383C21.9965 61.5437 21.2525 61.7786 19.8978 61.7786C19.0129 61.7786 17.8226 61.4967 16.969 60.7763C16.3269 60.2438 15.8727 59.4607 15.8727 58.3801C15.8727 56.8295 16.6167 55.882 17.8148 55.3182C18.9972 54.7622 20.6104 54.5899 22.3958 54.5899H23.821V53.5797C23.821 53.0472 23.8132 52.2877 23.4765 51.6768C23.1476 51.0739 22.4976 50.604 21.2134 50.604C20.2267 50.604 19.5454 50.8859 19.0912 51.301C18.4961 51.8491 18.2846 52.6322 18.2846 53.2665V53.3918H18.1515C18.1515 53.3918 16.8438 53.3605 16.8438 51.9823C16.8438 51.1913 17.3136 50.5257 18.1045 50.048C18.8876 49.586 19.9683 49.3119 21.2134 49.3119C22.5759 49.3119 23.6879 49.5703 24.471 50.236ZM52.4585 26.9627C52.9597 25.976 53.594 24.7309 54.0716 22.9924L54.1421 22.7262L54.2987 22.9533C56.0294 25.514 56.3034 27.9259 55.9354 29.6095C55.7944 30.2281 55.5673 30.745 55.3011 31.1365C55.0192 31.5359 54.6824 31.8021 54.3379 31.9118C54.0012 32.0136 53.6488 31.9666 53.3355 31.7317C50.9393 29.9384 51.4248 28.9752 52.4585 26.9627ZM53.3042 41.0582H53.312V35.7646C53.2729 35.1303 53.1084 34.9658 52.897 34.9815C52.7561 34.9893 52.5838 35.0598 52.4115 35.1303C52.2392 35.2007 52.0591 35.2712 51.8947 35.2869C51.5501 35.326 51.276 35.1772 51.1977 34.496C51.0959 33.6737 51.3308 33.1725 51.738 32.9141C51.9651 32.7653 52.2549 32.7027 52.5603 32.7184C52.8657 32.734 53.1789 32.8202 53.4921 32.9611C54.3614 33.3683 55.1601 34.2297 55.1601 35.2477V41.0582H55.168V42.9376C55.168 43.2274 55.2384 43.5328 55.442 43.7442C55.6065 43.9086 55.8571 44.0183 56.2251 44.0183H56.3817V44.0261H56.4914C56.6088 44.0261 56.7185 44.0731 56.7968 44.1514C56.8751 44.2297 56.9221 44.3393 56.9221 44.4646C56.9221 44.5821 56.8751 44.6917 56.7968 44.77C56.7185 44.8562 56.6088 44.9032 56.4914 44.9032H51.9886C51.8633 44.9032 51.7537 44.8562 51.6832 44.77C51.6049 44.6917 51.5579 44.5821 51.5579 44.4646C51.5579 44.3393 51.6049 44.2297 51.6832 44.1514C51.7537 44.0731 51.8633 44.0261 51.9886 44.0261H52.1374L52.2392 44.0183C52.5838 44.0104 52.8187 43.9008 52.9753 43.7364C53.2024 43.5171 53.2885 43.2117 53.312 42.9533V42.3425H53.3042V41.0582ZM47.2588 60.3926C47.4311 60.5884 47.666 60.7215 47.9557 60.7215L48.081 60.7293H48.2298C48.3473 60.7293 48.4569 60.7763 48.5352 60.8546C48.6135 60.9408 48.6605 61.0426 48.6605 61.1678C48.6605 61.2853 48.6135 61.3949 48.5352 61.4732C48.4569 61.5594 48.3473 61.6064 48.2298 61.6064H47.1883H47.0943C46.3661 61.6064 45.8806 61.3714 45.5595 61.0112C45.1523 60.557 45.027 59.9071 45.027 59.2963V54.4725C45.027 53.1882 44.8782 52.272 44.5102 51.6847C44.1499 51.113 43.5705 50.8468 42.6777 50.8468C41.738 50.8468 40.9941 51.2931 40.4694 51.9979C39.8743 52.7888 39.5611 53.9086 39.5611 55.0598V59.6408C39.5611 59.9306 39.6394 60.236 39.8508 60.4474C40.0153 60.6119 40.2737 60.7215 40.6417 60.7215H41.0098L41.0881 60.7528C41.2525 60.8859 41.3308 61.0269 41.3308 61.1678C41.323 61.3166 41.2447 61.4498 41.0881 61.575L41.0098 61.6064H36.4052L36.3348 61.5829C36.139 61.4498 36.0607 61.3088 36.0685 61.16C36.0763 61.0112 36.1625 60.8781 36.3191 60.7528L36.4052 60.7215H36.8359C37.1335 60.7215 37.3371 60.6197 37.4624 60.4552C37.6425 60.2438 37.7052 59.9384 37.7052 59.6408V54.5978C37.7052 53.3057 37.5564 52.3581 37.204 51.7395C36.8594 51.1365 36.3034 50.8468 35.4812 50.8468C34.4084 50.8468 33.6409 51.3245 33.1163 52.0919C32.5055 53.0003 32.2392 54.3002 32.2392 55.7097V59.6408C32.2392 59.9306 32.3097 60.236 32.5133 60.4474C32.6777 60.6119 32.9283 60.7215 33.2964 60.7215H33.453V60.7293H33.5626C33.6801 60.7293 33.7897 60.7763 33.868 60.8546C33.9463 60.9408 33.9933 61.0426 33.9933 61.1678C33.9933 61.2853 33.9463 61.3949 33.868 61.4732C33.7897 61.5594 33.6801 61.6064 33.5626 61.6064H29.0521C28.9346 61.6064 28.825 61.5594 28.7467 61.4732C28.6683 61.3949 28.6214 61.2853 28.6214 61.1678C28.6214 61.0426 28.6683 60.9408 28.7467 60.8546C28.825 60.7763 28.9346 60.7293 29.0521 60.7293H29.2087L29.3105 60.7215C29.6472 60.7137 29.89 60.604 30.0466 60.4396C30.2658 60.2203 30.3598 59.9149 30.3833 59.6643V58.5054V52.7967C30.3833 51.9744 30.2189 51.7552 29.9918 51.7552C29.843 51.7552 29.6629 51.8335 29.4828 51.9039C29.3026 51.9744 29.1304 52.0449 28.9659 52.0684C28.6214 52.1075 28.3473 51.9588 28.2611 51.2775C28.1672 50.4474 28.4021 49.9462 28.8015 49.6956C29.0286 49.5469 29.3183 49.492 29.6237 49.5077C29.9213 49.5155 30.2345 49.6017 30.5399 49.7348C31.2682 50.048 31.9495 50.6745 32.1374 51.3871C32.4428 50.8859 32.9127 50.4161 33.4765 50.0637C34.0873 49.6721 34.8234 49.4294 35.63 49.4294C36.601 49.4294 37.3371 49.6721 37.8931 50.0637C38.5039 50.4866 38.8876 51.066 39.1382 51.669C39.4514 51.0817 39.9213 50.5022 40.5399 50.0793C41.1194 49.6878 41.8398 49.4294 42.6777 49.4294C44.0951 49.4294 45.0975 49.8523 45.7631 50.5022C46.5775 51.2853 46.8986 52.4129 46.8986 53.5249V58.3174H46.9064V59.5155C46.9221 59.8053 47.0395 60.142 47.2588 60.3926ZM48.5744 8.3644L49.4984 5.38867L51.2995 7.9337L54.4162 7.89455L52.5524 10.3926L53.547 13.3448L50.6026 12.3425L48.1045 14.1984L48.1437 11.0895L45.5986 9.28844L48.5744 8.3644Z" fill="#FEFEFE"/>
<path fill-rule="evenodd" clip-rule="evenodd" d="M74.1038 83.142V78.4826H75.6151C76.1842 78.4826 76.5575 78.5061 76.735 78.5531C77.0012 78.621 77.2231 78.7724 77.4006 79.0073C77.5807 79.2422 77.6747 79.5398 77.6747 79.9157C77.6747 80.2028 77.6225 80.443 77.518 80.6361C77.4136 80.8293 77.2831 80.9833 77.1265 81.0981C76.9647 81.2078 76.8002 81.2809 76.6332 81.3174C76.4087 81.3592 76.085 81.38 75.6621 81.38H75.0513V83.142H74.1038ZM75.0513 79.2657V80.597H75.5603C75.931 80.597 76.179 80.5709 76.3043 80.5187C76.4296 80.4717 76.5261 80.396 76.594 80.2916C76.6671 80.1871 76.7036 80.0671 76.7036 79.9313C76.7036 79.7591 76.6488 79.6181 76.5548 79.5085C76.453 79.3988 76.3278 79.3284 76.179 79.297C76.0641 79.2762 75.837 79.2657 75.4977 79.2657H75.0513ZM68.63 80.8397C68.63 80.3646 68.7005 79.9653 68.8415 79.6416C68.9459 79.4014 69.0894 79.1874 69.2722 78.9995C69.4549 78.8115 69.6559 78.6706 69.8751 78.5766C70.1649 78.4591 70.5016 78.3965 70.8775 78.3965C71.5666 78.3965 72.1148 78.6079 72.5298 79.0386C72.9422 79.4615 73.1484 80.054 73.1484 80.8162C73.1484 81.568 72.9448 82.1631 72.5376 82.586C72.1252 83.0089 71.577 83.2203 70.8931 83.2203C70.204 83.2203 69.648 83.0089 69.2408 82.586C68.8336 82.1631 68.63 81.581 68.63 80.8397ZM69.5932 80.8084C69.5932 81.3357 69.7159 81.735 69.9613 82.0065C70.2066 82.278 70.5173 82.4137 70.8931 82.4137C71.269 82.4137 71.577 82.2806 71.8172 82.0143C72.0599 81.7403 72.1774 81.3331 72.1774 80.7927C72.1774 80.2602 72.0599 79.8609 71.825 79.5946C71.5901 79.3362 71.2847 79.2031 70.8931 79.2031C70.5068 79.2031 70.1936 79.3362 69.9534 79.6024C69.7185 79.8687 69.5932 80.2681 69.5932 80.8084ZM63.8924 83.142V78.4826H64.8399V80.315H66.6723V78.4826H67.6198V83.142H66.6723V81.106H64.8399V83.142H63.8924ZM59.0764 81.6306L59.9926 81.5367C60.0448 81.8447 60.1544 82.0692 60.3215 82.2101C60.4938 82.3563 60.7209 82.4294 61.0028 82.4294C61.3056 82.4294 61.5327 82.3641 61.6841 82.2336C61.8407 82.1083 61.919 81.9595 61.919 81.7872C61.919 81.6776 61.8851 81.5836 61.8172 81.5053C61.7545 81.427 61.6423 81.3618 61.4805 81.3096C61.3708 81.2678 61.1228 81.1999 60.7365 81.106C60.2301 80.9755 59.8777 80.8188 59.6794 80.6361C59.3922 80.3803 59.2487 80.0671 59.2487 79.6964C59.2487 79.4615 59.3165 79.2396 59.4523 79.0308C59.5828 78.822 59.7759 78.6654 60.0317 78.5609C60.2823 78.4513 60.5851 78.3965 60.9401 78.3965C61.5248 78.3965 61.9634 78.5244 62.2557 78.7802C62.5533 79.0464 62.7099 79.391 62.7256 79.8217L61.778 79.853C61.7415 79.6129 61.6553 79.4406 61.5196 79.3362C61.3891 79.2266 61.1933 79.1717 60.9323 79.1717C60.6608 79.177 60.4494 79.2344 60.298 79.344C60.1988 79.4171 60.1492 79.5137 60.1492 79.6338C60.1492 79.7434 60.1962 79.8374 60.2902 79.9157C60.405 80.0201 60.6922 80.1245 61.1516 80.2289C61.6058 80.3385 61.9425 80.456 62.1617 80.5656C62.381 80.6805 62.5533 80.8397 62.6786 81.0433C62.7987 81.2417 62.8587 81.4871 62.8587 81.7794C62.8587 82.0509 62.7856 82.3015 62.6394 82.5312C62.4906 82.7661 62.2792 82.9384 62.013 83.0558C61.7363 83.1655 61.3969 83.2203 60.9949 83.2203C60.405 83.2203 59.9534 83.0846 59.6402 82.8131C59.3217 82.5468 59.1338 82.1527 59.0764 81.6306ZM52.9448 83.142V78.4826H56.3904V79.2657H53.8845V80.2994H56.2181V81.0903H53.8845V82.3511H56.4844V83.142H52.9448ZM48.027 83.142V78.4826H48.9746V80.5421L50.8775 78.4826H52.1382L50.3841 80.2916L52.2322 83.142H51.0106L49.7342 80.9494L48.9746 81.7324V83.142H48.027ZM47.2831 83.142H46.2651L45.8657 82.077H43.9942L43.6105 83.142H42.6159L44.417 78.4826H45.4194L47.2831 83.142ZM45.5603 81.2939L44.9104 79.5633L44.2839 81.2939H45.5603ZM41.1359 81.4192L42.0521 81.7011C41.9112 82.2127 41.6762 82.5938 41.3473 82.8444C41.0237 83.0898 40.6112 83.2125 40.1101 83.2125C39.494 83.2125 38.9876 83.0036 38.5909 82.586C38.1889 82.1631 37.9879 81.5836 37.9879 80.8475C37.9879 80.0749 38.1889 79.4719 38.5909 79.0386C38.9902 78.6079 39.5149 78.3965 40.1727 78.3965C40.7417 78.3965 41.2038 78.5662 41.5588 78.9055C41.7728 79.1039 41.932 79.3884 42.0364 79.7591L41.1046 79.9862C41.0472 79.746 40.9323 79.5555 40.76 79.4145C40.5825 79.2735 40.3711 79.2031 40.1257 79.2031C39.7759 79.2031 39.494 79.3257 39.28 79.5711C39.0659 79.8217 38.9589 80.2237 38.9589 80.7771C38.9589 81.3644 39.0686 81.7872 39.28 82.0378C39.4888 82.2884 39.7629 82.4137 40.1022 82.4137C40.3528 82.4137 40.5721 82.3354 40.7522 82.171C40.9297 82.0143 41.0576 81.7638 41.1359 81.4192ZM31.7859 83.142V78.4826H35.2314V79.2657H32.7256V80.2994H35.0513V81.0903H32.7256V82.3511H35.3254V83.142H31.7859ZM26.8524 83.142V78.4826H27.8V80.315H29.6324V78.4826H30.5799V83.142H29.6324V81.106H27.8V83.142H26.8524ZM23.6966 83.142V79.2657H22.3184V78.4826H26.0145V79.2657H24.6363V83.142H23.6966Z" fill="#F7C0D8"/>
<path fill-rule="evenodd" clip-rule="evenodd" d="M91.543 46.4707C91.9659 46.4707 92.3783 46.5777 92.7803 46.7918C93.1823 47.011 93.4955 47.3217 93.72 47.7236C93.9445 48.1308 94.0567 48.5537 94.0567 48.9922C94.0567 49.4255 93.9471 49.8432 93.7278 50.2452C93.5033 50.6472 93.1927 50.9578 92.796 51.177C92.394 51.3963 91.9763 51.5059 91.543 51.5059C91.1045 51.5059 90.6842 51.3963 90.2822 51.177C89.8855 50.9578 89.5749 50.6472 89.3504 50.2452C89.1311 49.8432 89.0215 49.4255 89.0215 48.9922C89.0215 48.5537 89.1337 48.1308 89.3582 47.7236C89.5827 47.3217 89.8959 47.011 90.2979 46.7918C90.7051 46.5777 91.1201 46.4707 91.543 46.4707ZM91.543 46.8857C91.188 46.8857 90.8435 46.9771 90.5093 47.1598C90.17 47.3425 89.9064 47.601 89.7184 47.9351C89.5305 48.2744 89.4365 48.6268 89.4365 48.9922C89.4365 49.3525 89.5279 49.6996 89.7106 50.0337C89.8985 50.3679 90.1596 50.6289 90.4937 50.8168C90.8278 50.9995 91.1776 51.0909 91.543 51.0909C91.9032 51.0909 92.2504 50.9995 92.5845 50.8168C92.9186 50.6289 93.1797 50.3679 93.3676 50.0337C93.5503 49.6996 93.6417 49.3525 93.6417 48.9922C93.6417 48.6268 93.5477 48.2744 93.3598 47.9351C93.1718 47.601 92.9082 47.3425 92.5689 47.1598C92.2347 46.9771 91.8928 46.8857 91.543 46.8857ZM90.431 50.3783V47.6767H91.3629C91.6814 47.6767 91.9137 47.7001 92.0598 47.7471C92.2008 47.7993 92.3131 47.8881 92.3966 48.0134C92.4853 48.1335 92.5297 48.264 92.5297 48.4049C92.5297 48.6033 92.4566 48.7756 92.3104 48.9218C92.1695 49.0679 91.9815 49.1515 91.7466 49.1723C91.8458 49.2089 91.9241 49.2559 91.9815 49.3133C92.0912 49.4177 92.2243 49.5978 92.3809 49.8536L92.7098 50.3783H92.1773L91.9346 49.9554C91.7466 49.6161 91.5952 49.4047 91.4804 49.3211C91.4021 49.2585 91.2846 49.2298 91.128 49.235H90.8696V50.3783H90.431ZM90.8696 48.8591H91.4021C91.6579 48.8591 91.8302 48.82 91.9189 48.7417C92.0129 48.6686 92.0598 48.5694 92.0598 48.4441C92.0598 48.3658 92.0364 48.2953 91.9894 48.2326C91.9476 48.17 91.8876 48.123 91.8093 48.0917C91.731 48.0604 91.5848 48.0447 91.3707 48.0447H90.8696V48.8591Z" fill="#FEFEFE"/>
</svg>
